# xmcd
#
# Track frame offsets:
#	150
#	15405
#	33145
#	52945
#	68702
#	85140
#	99227
#	116215
#	132367
#	149630
#
# Disc length: 2193 seconds
#
# Revision: 2
# Processed by: cddbd v1.5.2PL0 Copyright (c) Steve Scherf et al.
# Submitted via: EasyCDDAExtractor 15.3.0.1
#
DISCID=7e088f0a
DTITLE=Alejandra Guzman - Eternamente Bella
DYEAR=1990
DGENRE=Latin
TTITLE0=Sheriff
TTITLE1=Un Grito En La Noche
TTITLE2=Llama Por Favor
TTITLE3=Eternamente Bella
TTITLE4=Estoy Bien
TTITLE5=Guante De Seda
TTITLE6=Que Me Das
TTITLE7=Cuidado Con El Corazon
TTITLE8=Di Que Si, Di Que No
TTITLE9=Camara De Gas
EXTD=
EXTT0=
EXTT1=
EXTT2=
EXTT3=
EXTT4=
EXTT5=
EXTT6=
EXTT7=
EXTT8=
EXTT9=
PLAYORDER=
